Coordinates
version=1
nRows=17
nColumns=40
inDegrees=yes

Units are S.I. units (second, meters, Newtons, ...)
Angles are in degrees.

endheader
time	pelvis_tilt	pelvis_list	pelvis_rotation	pelvis_tx	pelvis_ty	pelvis_tz	hip_flexion_r	hip_adduction_r	hip_rotation_r	knee_angle_r	knee_angle_r_beta	ankle_angle_r	subtalar_angle_r	mtp_angle_r	hip_flexion_l	hip_adduction_l	hip_rotation_l	knee_angle_l	knee_angle_l_beta	ankle_angle_l	subtalar_angle_l	mtp_angle_l	lumbar_extension	lumbar_bending	lumbar_rotation	arm_flex_r	arm_add_r	arm_rot_r	elbow_flex_r	pro_sup_r	wrist_flex_r	wrist_dev_r	arm_flex_l	arm_add_l	arm_rot_l	elbow_flex_l	pro_sup_l	wrist_flex_l	wrist_dev_l
      9.84000000	     -3.96063418	     -3.17820046	      0.46492427	      1.06602448	      0.92997019	      0.42273208	     30.35050972	     -7.33072171	     -7.49125448	     70.42734309	     70.42734309	      3.57843385	    -15.71531893	      0.19321272	     16.85124543	     -4.53150821	     -9.81962577	     22.92356723	     22.92356723	     11.92843759	    -12.05992662	     -2.07700802	    -10.74183261	      6.15145068	      0.22372012	      6.59683756	    -13.24498066	     -6.63263437	     90.16238188	     44.76776918	      0.00000000	      0.00000000	      9.77651786	    -12.49554046	      7.69220509	     36.15360671	     45.35780662	      0.00000000	      0.00000000
      9.85114286	     -3.84314020	     -3.38494468	      0.13172340	      1.06522357	      0.93099331	      0.42307374	     31.58376780	     -6.98720220	     -7.30592556	     69.30275315	     69.30275315	      3.53503022	    -15.79166458	      0.24856413	     15.73501877	     -4.77713395	    -10.10664440	     22.31047460	     22.31047460	     12.28244377	    -11.84154630	     -2.24723751	    -11.01491038	      6.43784441	      0.80416286	      4.25559079	    -13.55358144	     -6.84235728	     86.73181236	     44.88214031	      0.00000000	      0.00000000	     11.74889607	    -12.95902188	      7.44802388	     37.46402326	     45.42942986	      0.00000000	      0.00000000
      9.86228571	     -3.75923723	     -3.59216215	     -0.15794373	      1.06438360	      0.93189693	      0.42344748	     32.71512407	     -6.65096875	     -7.19623506	     67.98484499	     67.98484499	      3.42157630	    -15.81949217	      0.27589043	     14.67837347	     -5.01920117	    -10.39938623	     21.70011328	     21.70011328	     12.48059158	    -11.62470263	     -2.72956979	    -11.19152530	      6.67231727	      0.75076089	      3.11331497	    -12.85978832	     -7.92616211	     81.08968184	     45.10716246	      0.00000000	      0.00000000	     13.19634443	    -13.77260178	      7.36925362	     39.11412313	     45.49560367	      0.00000000	      0.00000000
      9.87342857	     -3.67650489	     -3.75286980	     -0.47055112	      1.06354850	      0.93266140	      0.42381155	     33.73510327	     -6.33559926	     -7.05247598	     66.48674681	     66.48674681	      3.35181847	    -15.77372503	      0.55341074	     13.61954352	     -5.18472800	    -10.64801037	     21.07233194	     21.07233194	     12.69262726	    -11.52462124	     -3.06082587	    -11.41047094	      6.86908431	      0.88257394	      1.89791698	    -12.63314750	     -8.44398763	     76.02220437	     45.29079442	      0.00000000	      0.00000000	     14.71641261	    -14.49927473	      7.21215417	     40.88116422	     45.57187612	      0.00000000	      0.00000000
      9.88457143	     -3.61130127	     -3.90300754	     -0.77296874	      1.06272228	      0.93328583	      0.42422010	     34.64241390	     -6.01679259	     -6.93782925	     64.76118108	     64.76118108	      3.28357265	    -15.70686404	      1.03334139	     12.57291071	     -5.32314923	    -10.88546978	     20.41583320	     20.41583320	     12.88144706	    -11.44531308	     -3.36649172	    -11.60547001	      7.05995398	      0.91878366	      1.07599622	    -12.34446014	     -9.02120474	     70.57481470	     45.48676037	      0.00000000	      0.00000000	     16.07809191	    -15.26891062	      6.96987413	     42.73814816	     45.66023015	      0.00000000	      0.00000000
      9.89571429	     -3.55253912	     -4.01354312	     -1.06979489	      1.06189845	      0.93374218	      0.42466375	     35.42529807	     -5.74185141	     -6.84930559	     62.79322374	     62.79322374	      3.21588772	    -15.55988398	      1.52883537	     11.55177802	     -5.41006825	    -11.11765013	     19.78031730	     19.78031730	     13.06317550	    -11.38841739	     -3.63579280	    -11.82330869	      7.21249324	      0.96982216	      0.39912500	    -12.13047598	     -9.57997890	     65.17330770	     45.67737607	      0.00000000	      0.00000000	     17.37075452	    -15.99267918	      6.57387560	     44.69403574	     45.76590933	      0.00000000	      0.00000000
      9.90685714	     -3.50077904	     -4.14508181	     -1.33883657	      1.06116750	      0.93400763	      0.42513304	     36.04694356	     -5.46240057	     -6.85256454	     60.53449388	     60.53449388	      3.12439829	    -15.38410629	      1.88061027	     10.53356168	     -5.50698525	    -11.30450986	     19.14221021	     19.14221021	     13.37401289	    -11.28028890	     -3.67249259	    -12.06295614	      7.43639012	      1.50808624	     -1.39298714	    -12.39171365	     -9.62512541	     62.35238397	     45.76426405	      0.00000000	      0.00000000	     19.07384717	    -16.28525186	      6.21190666	     46.16539986	     45.83959510	      0.00000000	      0.00000000
      9.91800000	     -3.55301050	     -4.10996225	     -1.64827055	      1.06038766	      0.93394880	      0.42572335	     36.69359489	     -5.32715059	     -6.78056165	     58.05174333	     58.05174333	      2.98767160	    -15.05150872	      1.99345000	      9.65776196	     -5.44651487	    -11.62199215	     18.55008038	     18.55008038	     13.47947284	    -11.22630198	     -4.15592953	    -12.07824121	      7.37531687	      1.13944553	     -0.57846305	    -11.68325136	    -11.08875620	     54.23544534	     46.08440138	      0.00000000	      0.00000000	     19.83922909	    -17.31709730	      5.65085513	     48.68743353	     45.95841646	      0.00000000	      0.00000000
      9.92914286	     -3.55788284	     -4.11668875	     -1.90284276	      1.05978110	      0.93381600	      0.42632637	     37.07937123	     -5.17913798	     -6.85059380	     55.22589684	     55.22589684	      2.76104524	    -14.65061831	      1.81946006	      8.70886467	     -5.40608055	    -11.85447053	     17.92650452	     17.92650452	     13.63404030	    -11.18379226	     -4.49087423	    -12.21492535	      7.41598344	      1.04147600	     -0.84707302	    -11.50101301	    -11.81619965	     48.87852747	     46.26884562	      0.00000000	      0.00000000	     20.64955756	    -17.99585600	      4.66196606	     51.40581834	     46.12599931	      0.00000000	      0.00000000
      9.94028571	     -3.53524845	     -4.10372024	     -2.15202593	      1.05934848	      0.93355502	      0.42695769	     37.25223952	     -5.05954569	     -7.02081570	     52.12342857	     52.12342857	      2.71568963	    -14.00040332	      1.96972722	      7.71913613	     -5.34616858	    -12.13386284	     17.31339202	     17.31339202	     13.92450962	    -11.01703377	     -4.59297073	    -12.38183822	      7.50057114	      1.66657733	     -2.43817856	    -11.78449422	    -11.95562484	     46.29717876	     46.35063063	      0.00000000	      0.00000000	     22.17261529	    -18.17134397	      4.15561452	     53.16783931	     46.21392624	      0.00000000	      0.00000000
      9.95142857	     -3.62989763	     -4.02787850	     -2.36918115	      1.05903916	      0.93299774	      0.42768080	     37.35704192	     -5.00268817	     -7.28072695	     48.70495240	     48.70495240	      2.41457080	    -13.24853295	      1.31945437	      6.81503800	     -5.22040664	    -12.42853296	     16.61193891	     16.61193891	     14.05980777	    -10.76097831	     -5.12873487	    -12.37251634	      7.41840292	      1.54998194	     -2.28068432	    -11.59163949	    -13.00972351	     40.18513325	     46.59974662	      0.00000000	      0.00000000	     22.74628998	    -18.77915380	      3.36398517	     56.09479185	     46.35128761	      0.00000000	      0.00000000
      9.96257143	     -3.64308058	     -4.06959126	     -2.52754949	      1.05893375	      0.93239847	      0.42847064	     37.14689912	     -4.83611933	     -7.73574000	     45.04109759	     45.04109759	      2.41170255	    -12.14870886	      1.51995274	      5.89608788	     -5.22848353	    -12.61063628	     16.09232389	     16.09232389	     14.37457490	    -10.58370638	     -5.28125341	    -12.46729959	      7.56284371	      1.74157548	     -3.77497686	    -11.77122681	    -13.20634008	     38.34119171	     46.66430980	      0.00000000	      0.00000000	     23.99214702	    -19.12135188	      2.86928173	     57.61807533	     46.42763780	      0.00000000	      0.00000000
      9.97371429	     -3.65050361	     -3.90714072	     -2.69603262	      1.05918639	      0.93159060	      0.42934614	     36.73023521	     -4.82987607	     -8.18599637	     41.12294799	     41.12294799	      1.96466542	    -11.04936974	      0.06867408	      4.81684904	     -4.99728187	    -12.95513709	     15.28588161	     15.28588161	     14.34865064	    -10.30833640	     -6.18302212	    -12.48626619	      7.37775102	      1.09211661	     -2.76432672	    -11.44386064	    -15.20458842	     31.30439431	     47.00310486	      0.00000000	      0.00000000	     23.68437796	    -20.00745695	      1.02927976	     61.92495602	     46.69139428	      0.00000000	      0.00000000
      9.98485714	     -3.62512822	     -3.88127061	     -2.80403934	      1.05971183	      0.93064992	      0.43028225	     36.09030003	     -4.67834969	     -8.83966324	     37.15255526	     37.15255526	      2.15002427	     -9.48895900	      0.46271938	      3.77106447	     -4.92721408	    -13.18762345	     14.67732794	     14.67732794	     14.70801090	     -9.93892532	     -6.37208141	    -12.54191449	      7.43765106	      1.49321604	     -4.46633593	    -11.68711315	    -15.37283343	     29.95388051	     47.04947680	      0.00000000	      0.00000000	     24.88629218	    -20.04632168	      0.63746236	     63.53161269	     46.76016093	      0.00000000	      0.00000000
      9.99600000	     -3.64482680	     -3.76265025	     -2.89058806	      1.06053101	      0.92938896	      0.43137266	     35.36364273	     -4.57049673	     -9.56035658	     33.18555997	     33.18555997	      2.31692374	     -7.88260837	      0.98645781	      2.76405520	     -4.77204004	    -13.47375363	     14.07003423	     14.07003423	     15.06640564	     -9.52746898	     -6.63510526	    -12.42723851	      7.32827832	      1.76466204	     -6.06672573	    -11.82066869	    -15.52410694	     28.60149323	     47.09915114	      0.00000000	      0.00000000	     25.94381027	    -20.19131530	      0.27414093	     65.22168053	     46.82521747	      0.00000000	      0.00000000
     10.00714286	     -3.40751531	     -3.58757464	     -2.95575513	      1.06191478	      0.92819777	      0.43245611	     34.27276819	     -4.56058260	    -10.46531687	     29.45504031	     29.45504031	      2.73152753	     -5.71989830	      1.59396410	      1.33113538	     -4.52903173	    -13.89627889	     13.25483091	     13.25483091	     15.39162346	     -8.79047632	     -7.10357650	    -12.62567572	      7.16615418	      2.23257992	     -7.57386452	    -11.96261009	    -15.80866704	     26.68488663	     47.18318954	      0.00000000	      0.00000000	     26.75424601	    -20.16261007	     -0.16911478	     67.96791070	     46.91675287	      0.00000000	      0.00000000
     10.01828571	     -3.37760074	     -3.39748387	     -2.97734674	      1.06344160	      0.92646884	      0.43372750	     33.43411894	     -4.50729679	    -11.37596330	     26.15331360	     26.15331360	      3.58854959	     -3.67351564	      3.96254323	      0.18984986	     -4.30534970	    -14.24572629	     12.55443010	     12.55443010	     15.54488586	     -8.23703306	     -7.98961998	    -12.52434185	      6.94100938	      1.31107381	     -7.43223717	    -11.87939508	    -17.34309150	     23.15937922	     47.43088086	      0.00000000	      0.00000000	     25.95054366	    -21.03546997	     -1.98217316	     72.36238678	     47.18689849	      0.00000000	      0.00000000
